<svg width="170" height="54" viewBox="0 0 170 54" fill="none" xmlns="http://www.w3.org/2000/svg">
<rect x="0.7" y="0.7" width="168.6" height="52.6" rx="26.3" stroke="#F66F4D" stroke-width="1.4"/>
<path d="M120 28.4574L124.046 30.2128L133.425 22.8724L126.069 31.1702V35L128.828 31.9681L133.425 33.5638L136 20L120 28.4574Z" fill="#F66F4D"/>
<path d="M41.9333 27.288C42.5306 27.3947 43.0373 27.7093 43.4533 28.232C43.8693 28.7547 44.0773 29.3467 44.0773 30.008C44.0773 30.5733 43.9279 31.0853 43.6293 31.544C43.3413 31.992 42.9199 32.3493 42.3653 32.616C41.8106 32.872 41.1653 33 40.4293 33H35.9813V21.88H40.2213C40.9786 21.88 41.6293 22.008 42.1733 22.264C42.7173 22.52 43.1279 22.8667 43.4053 23.304C43.6826 23.7307 43.8212 24.2107 43.8212 24.744C43.8212 25.384 43.6506 25.9173 43.3093 26.344C42.9679 26.7707 42.5093 27.0853 41.9333 27.288ZM37.8053 26.552H40.0613C40.6586 26.552 41.1226 26.4187 41.4533 26.152C41.7946 25.8747 41.9653 25.48 41.9653 24.968C41.9653 24.4667 41.7946 24.0773 41.4533 23.8C41.1226 23.512 40.6586 23.368 40.0613 23.368H37.8053V26.552ZM40.2693 31.512C40.8879 31.512 41.3733 31.3627 41.7253 31.064C42.0773 30.7653 42.2533 30.3493 42.2533 29.816C42.2533 29.272 42.0666 28.84 41.6933 28.52C41.3199 28.2 40.8239 28.04 40.2053 28.04H37.8053V31.512H40.2693ZM49.8834 33.144C49.0514 33.144 48.2994 32.9573 47.6274 32.584C46.9554 32.2 46.4274 31.6667 46.0434 30.984C45.6594 30.2907 45.4674 29.4907 45.4674 28.584C45.4674 27.688 45.6647 26.8933 46.0594 26.2C46.454 25.5067 46.9927 24.9733 47.6754 24.6C48.358 24.2267 49.1207 24.04 49.9634 24.04C50.806 24.04 51.5687 24.2267 52.2514 24.6C52.934 24.9733 53.4727 25.5067 53.8674 26.2C54.262 26.8933 54.4594 27.688 54.4594 28.584C54.4594 29.48 54.2567 30.2747 53.8514 30.968C53.446 31.6613 52.8914 32.2 52.1874 32.584C51.494 32.9573 50.726 33.144 49.8834 33.144ZM49.8834 31.56C50.3527 31.56 50.79 31.448 51.1954 31.224C51.6114 31 51.9474 30.664 52.2034 30.216C52.4594 29.768 52.5874 29.224 52.5874 28.584C52.5874 27.944 52.4647 27.4053 52.2194 26.968C51.974 26.52 51.6487 26.184 51.2434 25.96C50.838 25.736 50.4007 25.624 49.9314 25.624C49.462 25.624 49.0247 25.736 48.6194 25.96C48.2247 26.184 47.91 26.52 47.6754 26.968C47.4407 27.4053 47.3234 27.944 47.3234 28.584C47.3234 29.5333 47.5634 30.2693 48.0434 30.792C48.534 31.304 49.1474 31.56 49.8834 31.56ZM60.0865 33.144C59.2545 33.144 58.5025 32.9573 57.8305 32.584C57.1585 32.2 56.6305 31.6667 56.2465 30.984C55.8625 30.2907 55.6705 29.4907 55.6705 28.584C55.6705 27.688 55.8678 26.8933 56.2625 26.2C56.6572 25.5067 57.1958 24.9733 57.8785 24.6C58.5612 24.2267 59.3238 24.04 60.1665 24.04C61.0092 24.04 61.7718 24.2267 62.4545 24.6C63.1372 24.9733 63.6758 25.5067 64.0705 26.2C64.4652 26.8933 64.6625 27.688 64.6625 28.584C64.6625 29.48 64.4598 30.2747 64.0545 30.968C63.6492 31.6613 63.0945 32.2 62.3905 32.584C61.6972 32.9573 60.9292 33.144 60.0865 33.144ZM60.0865 31.56C60.5558 31.56 60.9932 31.448 61.3985 31.224C61.8145 31 62.1505 30.664 62.4065 30.216C62.6625 29.768 62.7905 29.224 62.7905 28.584C62.7905 27.944 62.6678 27.4053 62.4225 26.968C62.1772 26.52 61.8518 26.184 61.4465 25.96C61.0412 25.736 60.6038 25.624 60.1345 25.624C59.6652 25.624 59.2278 25.736 58.8225 25.96C58.4278 26.184 58.1132 26.52 57.8785 26.968C57.6438 27.4053 57.5265 27.944 57.5265 28.584C57.5265 29.5333 57.7665 30.2693 58.2465 30.792C58.7372 31.304 59.3505 31.56 60.0865 31.56ZM69.9536 28.6L74.0176 33H71.5536L68.2896 29.208V33H66.4656V21.16H68.2896V28.04L71.4896 24.184H74.0176L69.9536 28.6ZM88.6173 33H86.7933L81.3053 24.696V33H79.4813V21.864H81.3053L86.7933 30.152V21.864H88.6173V33ZM94.8365 33.144C94.0045 33.144 93.2525 32.9573 92.5805 32.584C91.9085 32.2 91.3805 31.6667 90.9965 30.984C90.6125 30.2907 90.4205 29.4907 90.4205 28.584C90.4205 27.688 90.6178 26.8933 91.0125 26.2C91.4072 25.5067 91.9458 24.9733 92.6285 24.6C93.3112 24.2267 94.0738 24.04 94.9165 24.04C95.7592 24.04 96.5218 24.2267 97.2045 24.6C97.8872 24.9733 98.4258 25.5067 98.8205 26.2C99.2152 26.8933 99.4125 27.688 99.4125 28.584C99.4125 29.48 99.2098 30.2747 98.8045 30.968C98.3992 31.6613 97.8445 32.2 97.1405 32.584C96.4472 32.9573 95.6792 33.144 94.8365 33.144ZM94.8365 31.56C95.3058 31.56 95.7432 31.448 96.1485 31.224C96.5645 31 96.9005 30.664 97.1565 30.216C97.4125 29.768 97.5405 29.224 97.5405 28.584C97.5405 27.944 97.4178 27.4053 97.1725 26.968C96.9272 26.52 96.6018 26.184 96.1965 25.96C95.7912 25.736 95.3538 25.624 94.8845 25.624C94.4152 25.624 93.9778 25.736 93.5725 25.96C93.1778 26.184 92.8632 26.52 92.6285 26.968C92.3938 27.4053 92.2765 27.944 92.2765 28.584C92.2765 29.5333 92.5165 30.2693 92.9965 30.792C93.4872 31.304 94.1005 31.56 94.8365 31.56ZM113.056 24.184L110.32 33H108.4L106.624 26.488L104.848 33H102.928L100.176 24.184H102.032L103.872 31.272L105.744 24.184H107.648L109.44 31.24L111.264 24.184H113.056Z" fill="#F66F4D"/>
</svg>
